<?xml version="1.0" encoding="utf-8"?>
<!-- Generator: Adobe Illustrator 27.0.0, SVG Export Plug-In . SVG Version: 6.00 Build 0)  -->
<svg version="1.1" id="Layer_1" xmlns="http://www.w3.org/2000/svg" xmlns:xlink="http://www.w3.org/1999/xlink" x="0px" y="0px"
	 viewBox="0 0 3286.42 388.69" enable-background="new 0 0 3286.42 388.69" xml:space="preserve">
<g>
	<g>
		<path fill="#E8891C" d="M146.54,30.72c9.86-1.64,17.18-4,26.51-8.55c7.04-3.43,11.61-6.37,14.07-9.02
			c2.66-2.87,3.74-6.21,2.81-8.67c-0.58-1.55-2.57-3.31-4.34-3.85c-2.34-0.71-7.24-0.84-11.01-0.3
			c-15.13,2.16-28.06,6.94-38.55,14.26c-3.55,2.47-8.32,7.08-9.59,9.26c-1.18,2.02-1.21,4.04-0.08,5.38
			C128.67,31.98,135.8,32.51,146.54,30.72z"/>
		<g>
			<path fill="#2B6C8A" d="M132.75,340.32c-2.33-1.64-6.1-4.54-8.39-6.45c-11.74-9.78-12.98-10.71-17.54-13
				c-4.96-2.49-10.49-3.29-14.12-2.03c-5.09,1.76-8.66,5.68-9.71,10.65c-1.37,6.46,0.19,11.88,5.41,18.81
				c4.62,6.14,9.45,10.43,18.22,16.22c6.25,4.12,14.98,7.94,20.8,9.08c2.51,0.49,8.04,0.25,10.27-0.46
				c3.63-1.15,8.37-5.11,9.78-8.19C151.11,357,147.24,350.52,132.75,340.32z"/>
			<path fill="#E8891C" d="M102.35,278.02c9.47-6.39,14.52-15.41,15.4-27.49c0.94-12.96-3.63-24.33-13.87-34.52
				c-3.66-3.64-7.81-6.41-13-8.65c-4.8-2.08-11.5-2.84-16.07-1.84c-4.07,0.89-9.19,3.46-12.72,6.39c-3.96,3.28-7.87,9.01-9.49,13.92
				c-1.44,4.33-1.92,7.44-1.92,12.35c-0.01,11.29,3.65,21.08,11.33,30.3c5.77,6.94,11.45,10.75,19.22,12.88
				C89.22,283.55,95.67,282.53,102.35,278.02z"/>
			<path fill="#2B6C8A" d="M378.42,153.48c-2.24-8.83-5.92-17.43-9.46-22.12c-2.28-3.02-7.22-8.09-9.79-10.05
				c-5.16-3.95-11.57-5.53-16.78-4.12c-5.88,1.58-9.89,6.29-12.25,14.37c-0.45,1.54-0.52,4.18-0.54,19.1
				c-0.02,15.01-0.09,17.53-0.54,18.93c-1.92,5.94-4.42,10.62-7.86,14.73c-3.59,4.28-7.64,6.69-13.78,8.21
				c-6.41,1.58-9.19,1.65-19.74,0.51c-12.05-1.31-23.11,0.74-30.5,5.64c-2.23,1.48-6.75,6.14-9.29,9.58
				c-4.41,5.98-6.22,11.04-8.29,23.15c-2.06,12.06-3.3,15.87-6.98,21.38c-4.99,7.47-11.99,12.05-22.59,14.79
				c-3.91,1.01-4.28,1.05-10.05,1.01c-4.72-0.03-7.18-0.22-11.65-0.91c-14.05-2.16-14.31-2.19-17.64-2
				c-12.99,0.72-22.94,5.77-30.01,15.24c-4.11,5.5-5.74,10.19-5.99,17.2c-0.15,4.15-0.09,4.86,0.66,7.77
				c1.65,6.42,3.8,10.32,8.92,16.18c8.45,9.69,19.2,14.64,33.05,15.22c5.3,0.22,10.26-0.51,15.72-2.33
				c6.96-2.32,11.74-5.07,15.6-8.96c5.66-5.72,8.09-10.77,9.76-20.31c1.9-10.9,4.05-15.98,9.5-22.52
				c5.85-7.02,13.59-10.84,25.63-12.63c2.93-0.43,4.74-0.48,10.19-0.27c3.65,0.14,9.33,0.26,12.62,0.27
				c6.45,0.01,8.22-0.28,13.91-2.29c7.44-2.63,14.11-7.73,18.35-14.01c3.54-5.26,5.24-10.5,6.73-20.87
				c2.46-17.06,5.3-23.59,13.79-31.74c5.13-4.92,9.74-7.01,17.43-7.92c2.47-0.29,4.17-0.26,8.67,0.15
				c12.39,1.13,16.55,0.43,20.73-3.51c4.96-4.67,6.72-10.11,5.92-18.27C381.49,167.89,379.84,159.06,378.42,153.48z"/>
			<path fill="#2B6C8A" d="M364.53,217.13c-5.35,1.19-10.08,4.19-15.31,9.72c-6.73,7.12-9.76,12.26-14.8,25.1
				c-4.51,11.5-6.32,19.25-6.34,27.12c-0.02,7.45,2.94,14.25,7.13,16.37c3.77,1.91,7.94,1.55,13.3-1.13
				c3.93-1.97,9.74-7.08,13.48-11.85c4.22-5.39,10.41-16.72,12.73-23.27c2.52-7.14,4.53-17.39,4.54-23.11
				c0-5.2-1.51-11.53-3.44-14.45C373.32,217.88,368.97,216.15,364.53,217.13z"/>
			<path fill="#2B6C8A" d="M302.4,303.79c-3.79-2.83-7.66-4.29-13.99-5.27c-4.4-0.68-6.64-0.74-10.28-0.27
				c-11.92,1.53-22.21,7.79-28.74,17.51c-2.55,3.8-3.9,6.87-5.41,12.37c-2.09,7.61-3.28,10.27-6.08,13.71
				c-4.11,5.03-14.4,9.07-30.96,12.18c-15.34,2.88-26.64,7.68-34.57,14.68c-3.79,3.35-6.16,6.8-6.97,10.16
				c-1.04,4.32,2.05,7.62,8.54,9.09c3.82,0.87,5.62,0.94,10.03,0.37c5.48-0.7,8.81-1.45,13.7-3.08
				c14.43-4.83,20.46-9.07,26.51-18.68c3.45-5.48,6.24-8.2,10.54-10.26c6.04-2.9,11.51-3.13,20.28-0.84
				c9.87,2.57,10.59,2.7,14.89,2.73c3.47,0.02,4.71-0.13,8.74-1.05c7.88-1.81,11.79-3.57,17.55-7.9
				c7.93-5.97,12.89-12.76,14.82-20.29c1.34-5.25,1.18-9.74-0.52-14.87C309.12,310.06,306.76,307.05,302.4,303.79z"/>
			<path fill="#E8891C" d="M46.09,281.55c-2.23-0.58-3.03-0.59-5.01-0.05c-2.4,0.65-3.75,1.67-4.64,3.54
				c-1.68,3.49-1.83,7.86-0.48,13.98c1.86,8.43,9.91,20.83,16.84,25.93c2.46,1.81,6.29,3.42,8.56,3.61
				c3.98,0.32,7.64-1.98,8.67-5.45c1.43-4.82-0.31-13.95-4.16-21.82C60.86,291.03,53.21,283.4,46.09,281.55z"/>
			<path fill="#E8891C" d="M35.27,241.73c-0.22-19.43-0.18-20.62,0.78-25.53c1.62-8.22,3.01-12.02,6.76-18.39
				c3.77-6.41,8.86-12.04,12.74-14.09c1.1-0.58,3.57-1.6,5.5-2.26l3.51-1.2l8.74-0.02c4.81-0.01,9.25-0.14,9.87-0.27
				c8.9-1.95,16.19-6.64,21.03-13.52c3.95-5.62,6.08-10.86,7.75-19.1c2.66-13.11,4.86-18.43,10.3-24.92
				c6.4-7.63,14.02-11.85,23.8-13.18c3.62-0.49,6.79-0.43,17.12,0.33c14.71,1.08,19.56,0.42,29.01-3.97
				c4.72-2.19,8.18-4.6,11.38-7.92c5.36-5.56,8.21-11.61,9.72-20.57c0.34-1.99,0.34-2.98,0.01-5.13
				c-0.89-5.82-3.41-12.25-6.21-15.86c-5.83-7.52-14.58-13.05-23.6-14.91c-2.96-0.61-9.91-1.02-12.3-0.72
				c-3.31,0.41-9.63,1.95-12.62,3.07c-9.94,3.73-17.94,11-23.06,20.95c-2.32,4.5-2.86,6.18-4.24,13.16
				c-1.28,6.46-2.14,9.28-3.92,12.83c-4.59,9.15-15.64,17.49-26.54,20.02c-2.81,0.65-9.96,1.76-13.59,2.11
				c-8.32,0.79-16.51,3.57-21.53,7.29c-5.1,3.78-10.39,10.58-12.29,15.79c-0.56,1.54-1.59,5.41-2.28,8.58
				c-2.25,10.33-4.19,16.03-9.04,26.47c-4.17,8.98-9.96,18.73-13.68,23.03c-3.06,3.54-7.21,5.98-12.3,7.24
				c-4.29,1.06-6.35,2.02-8.34,3.88c-3.14,2.94-3.85,5.47-3.86,13.76c0,4.73,0.13,6.48,0.8,10.1c1.95,10.54,6.28,19.82,12.27,26.3
				c3.76,4.07,8.76,6.82,11.78,6.48c2.95-0.33,5.16-3.35,6.11-8.36C35.26,251.02,35.34,248.7,35.27,241.73z"/>
			<path fill="#E8891C" d="M194.15,147.81c-6.65-3.59-17.19-5.98-23.62-5.36c-10.68,1.02-19.51,4.65-27.34,11.24
				c-7.66,6.44-13.56,16.37-15.75,26.5c-1.04,4.81-1.03,12.52,0.03,17.71c1.88,9.2,4.95,15.34,10.86,21.65
				c5.34,5.72,9.29,8.78,14.94,11.61c7.95,3.98,18.98,5.55,28.13,3.99c11.66-1.98,21.84-7.9,28.41-16.52
				c6.02-7.89,8.17-12.3,9.58-19.6c2.06-10.67,0.59-21.95-3.94-30.2C210.84,160.46,202.71,152.42,194.15,147.81z"/>
			<path fill="#E8891C" d="M281.2,83.82c-9.39-2.33-12.83-2.88-17.96-2.88c-5.49,0.01-8.8,0.72-13.35,2.88
				c-4.24,2.01-6.94,3.89-9.95,6.93c-3.91,3.95-7.3,9.51-8.71,14.26c-0.73,2.47-1.48,7.66-1.48,10.27c0,3.07,0.83,7.82,1.94,11.14
				c4.4,13.13,14.66,23.31,27.64,27.43c8.7,2.76,18.62,2.53,25.99-0.62c8.29-3.54,14.19-9.32,17.64-17.29
				c2.09-4.82,2.5-7.15,2.84-15.99c0.31-7.98,0.56-10.34,1.45-13.82c1.24-4.84,4.62-9.35,8.23-10.97c2.24-1,6.09-1.81,8.62-1.81
				c2.75,0,8.81,1.43,15,3.54c9.89,3.37,12.42,3.62,14.49,1.42c1.71-1.81,2.08-3.95,1.19-6.93c-1.05-3.55-3.04-6.76-8.7-14.06
				c-5.42-6.99-7.95-9.8-15.41-17.15c-9.77-9.61-13.31-11.76-16.3-9.91c-2.53,1.57-3.23,3.38-2.95,7.6
				c0.75,11.19,0.66,12.65-0.95,16.3c-2.27,5.15-6.21,8.43-12.46,10.4C292.62,86.29,290.81,86.2,281.2,83.82z"/>
			<path fill="#E8891C" d="M230.87,41.67c5.94,4.43,18.5,11.07,26.71,14.11c7.17,2.66,14.18,3.81,21.36,3.5
				c4.87-0.21,7.16-0.7,10.07-2.18c3.99-2.02,6.58-5.89,6.56-9.85c-0.02-4.11-2.85-9.71-7.05-13.91
				c-6.46-6.47-19.76-14.86-32.4-20.43c-5.92-2.61-10.28-4.07-14.92-4.98c-3.96-0.78-10.69-1.1-13.31-0.63
				c-6.66,1.19-10.67,4.28-12.18,9.37c-1.04,3.51-0.4,7.69,1.77,11.5C219.54,31.82,224.89,37.21,230.87,41.67z"/>
			<path fill="#2B6C8A" d="M106.4,20.78c-6.32,1.57-11.77,5.05-17.16,8.62c-5.87,3.9-12.48,8.39-17.39,13.6
				c-2.29,2.43-2.66,5.59-4.74,8.02c-1.67,1.96-3.83,3.54-5.74,5.25c-2.49,2.23-5.01,6.03-8.02,7.48c-2.74,1.32-5.4,1.84-8.01,3.55
				c-1.95,1.28-3.12,2.21-4.84,4.06c-1.45,1.56-2.78,3.22-4,4.96l-17.76,25.18c-2.65,3.75-4.75,7.86-6.27,12.19
				c-0.77,2.21-1.66,4.35-2.94,6.68c-2.59,4.71-4.34,9.83-5.98,14.93c-4.37,13.58-8.06,27.68-7.21,41.92c0.16,2.78,0.69,5.92,3.67,7
				c0.92,0.33,1.93,0.38,2.89,0.19c2.64-0.51,4.59-2.33,6.36-4.2c9.36-9.87,15.94-22.44,18.2-35.85c0.39-2.3,0.65-4.71-0.35-6.89
				c-0.39-0.85-0.98-1.61-1.74-2.15c-2.77-1.97-5.27,0.15-7.81,0.66c-2.08,0.42-4.11-1.05-4.41-3.15c0-0.01,0-0.02,0-0.03
				c-0.47-3.39,0.67-6.64,2.03-9.68c0.99-2.21,1.6-5.37,3.73-6.77c0.72-0.47,1.57-0.7,2.4-0.96c12.65-3.9,22.16-15.32,29.04-26.09
				c5.3-8.3,8.15-15.24,8.13-19.68c4.79-4.84,10.17-9.18,15.82-12.86c3.2-0.08,6.34-0.77,9.39-1.82
				c7.05-2.42,13.92-6.48,21.08-12.44c7.91-6.58,12.41-12.49,12.45-16.31c0.02-2.17-1.08-4.13-3.03-5.11
				C111.81,19.91,109.03,20.12,106.4,20.78z"/>
		</g>
	</g>
	<g>
		<g>
			<path fill="#E8891C" d="M519.48,143h108.84l20.25-26.62h-127.3c-20.77,0-36.6,3.98-47.07,11.83
				c-10.31,7.74-15.54,19.17-15.54,33.97c0,29.06,19.71,43.79,58.58,43.79h60.51c28.61,0,41.38,2.77,41.38,19.19
				c0,8.91-3.24,20.76-31.29,20.76H468.7l-20.59,26.4h137.93c21.19,0,36.56-3.87,46.98-11.82c10.23-7.8,15.41-19.61,15.41-35.11
				c0-28.76-19.63-43.34-58.36-43.34h-60.51c-32.48,0-41.38-3.93-41.38-18.29C488.18,154.84,491.43,143,519.48,143z"/>
			<path fill="#E8891C" d="M1034.07,114.36c-7.13,0-13.47,3.61-18.39,10.5l-97.33,142.86l-48.45-140
				c-4.22-11.04-11.53-13.36-16.92-13.36c-7.3,0-13.28,3.91-16.4,10.72l-50.83,111.88l-50.88-111.98
				c-3.43-6.85-9.31-10.62-16.58-10.62c-7.67,0-13.93,5.04-16.73,13.44l-50.71,144.52h30.12l40.33-115.41l46.91,106.24
				c4.37,9.84,10.8,11.19,17.08,11.19c5.64,0,12.68-1.27,17.09-11.2l46.9-106.21l40.11,115.4h25.83h4.73h31.23l82.43-122l63.46,95.6
				H996.68l-19.14,26.4h174l-99.04-147.4C1048.06,118.11,1041.51,114.36,1034.07,114.36z"/>
			<path fill="#E8891C" d="M1349.95,169.35c0-17.79-7.94-32.05-22.95-41.25c-15.83-9.7-35.55-11.73-49.31-11.73h-102.33L1154.82,143
				h113.91c34.81,0,50.34,8.54,50.34,27.7c0,24.67-38.53,26.58-50.34,26.58h-110.35v75.03h30.21v-49.53h81.89l53.56,49.53h42.07
				l-62.37-54.86C1332.82,212.77,1349.95,195.14,1349.95,169.35z"/>
			<polygon fill="#E8891C" points="1375.31,116.38 1354.19,143 1436.96,143 1436.96,272.31 1467.39,272.31 1467.39,143 1535.79,143 
				1556.34,116.38 			"/>
		</g>
		<g>
			<path fill="#2B6C8A" d="M2013.72,114.36c-7.13,0-13.47,3.61-18.39,10.5L1898,267.71l-48.45-140
				c-4.22-11.04-11.53-13.36-16.92-13.36c-7.3,0-13.28,3.91-16.4,10.72l-50.83,111.88l-50.88-111.98
				c-3.43-6.85-9.31-10.62-16.58-10.62c-7.67,0-13.93,5.04-16.73,13.44l-50.71,144.52h30.12l40.33-115.41l46.91,106.24
				c4.37,9.84,10.79,11.19,17.08,11.19c5.64,0,12.68-1.27,17.09-11.2l46.9-106.21l40.11,115.4h25.83h4.72h31.23l82.43-122
				l63.46,95.6h-100.38l-19.14,26.4h174l-99.04-147.4C2027.71,118.11,2021.17,114.36,2013.72,114.36z"/>
			<path fill="#2B6C8A" d="M2329.6,169.35c0-17.79-7.94-32.05-22.95-41.25c-15.83-9.7-35.55-11.73-49.3-11.73h-102.33L2134.48,143
				h113.91c34.81,0,50.34,8.54,50.34,27.7c0,24.67-38.53,26.58-50.34,26.58h-110.35v75.03h30.21v-49.53h81.89l53.57,49.53h42.07
				l-62.37-54.86C2312.47,212.77,2329.6,195.14,2329.6,169.35z"/>
			<polygon fill="#2B6C8A" points="2530.92,116.38 2482.19,116.38 2380.71,179.64 2380.71,116.38 2350.5,116.38 2350.5,272.31 
				2380.71,272.31 2380.71,202.88 2487.99,272.31 2537.19,272.31 2406.55,190.49 			"/>
			<polygon fill="#2B6C8A" points="2568.53,205.97 2681.07,205.97 2699.62,182.04 2568.53,182.04 2568.53,143 2686.01,143 
				2706.55,116.38 2538.32,116.38 2538.32,272.31 2687.12,272.31 2707.71,245.92 2568.53,245.92 			"/>
			<polygon fill="#2B6C8A" points="2696.93,143 2779.7,143 2779.7,272.31 2810.13,272.31 2810.13,143 2878.53,143 2899.08,116.38 
				2718.05,116.38 			"/>
			<polygon fill="#2B6C8A" points="2933.63,205.97 3046.18,205.97 3064.72,182.04 2933.63,182.04 2933.63,143 3051.11,143 
				3071.65,116.38 2903.42,116.38 2903.42,272.31 3052.22,272.31 3072.82,245.92 2933.63,245.92 			"/>
			<path fill="#2B6C8A" d="M3224.05,217.46c29.08-4.69,46.21-22.31,46.21-48.1c0-17.79-7.94-32.05-22.95-41.25
				c-15.83-9.7-35.55-11.73-49.3-11.73h-102.33L3075.14,143h113.91c34.82,0,50.34,8.54,50.34,27.7c0,24.67-38.53,26.58-50.34,26.58
				h-110.35v75.03h30.21v-49.53h81.89l53.56,49.53h42.07L3224.05,217.46z"/>
		</g>
	</g>
</g>
<g>
</g>
<g>
</g>
<g>
</g>
<g>
</g>
<g>
</g>
<g>
</g>
</svg>
